{
    "asset" : {
        "generator" : "Khronos glTF Blender I/O v3.3.27",
        "version" : "2.0"
    },
    "scene" : 0,
    "scenes" : [
        {
            "name" : "Scene",
            "nodes" : [
                0
            ]
        }
    ],
    "nodes" : [
        {
            "mesh" : 0,
            "name" : "Text.007",
            "translation" : [
                2.618593215942383,
                0,
                -0.22316616773605347
            ]
        }
    ],
    "meshes" : [
        {
            "name" : "Text.007",
            "primitives" : [
                {
                    "attributes" : {
                        "POSITION" : 0,
                        "NORMAL" : 1,
                        "TEXCOORD_0" : 2
                    },
                    "indices" : 3
                }
            ]
        }
    ],
    "accessors" : [
        {
            "bufferView" : 0,
            "componentType" : 5126,
            "count" : 677,
            "max" : [
                0.2073264718055725,
                0.11285419762134552,
                0.22316616773605347
            ],
            "min" : [
                -0.15064209699630737,
                0,
                -0.28331369161605835
            ],
            "type" : "VEC3"
        },
        {
            "bufferView" : 1,
            "componentType" : 5126,
            "count" : 677,
            "type" : "VEC3"
        },
        {
            "bufferView" : 2,
            "componentType" : 5126,
            "count" : 677,
            "type" : "VEC2"
        },
        {
            "bufferView" : 3,
            "componentType" : 5123,
            "count" : 1056,
            "type" : "SCALAR"
        }
    ],
    "bufferViews" : [
        {
            "buffer" : 0,
            "byteLength" : 8124,
            "byteOffset" : 0,
            "target" : 34962
        },
        {
            "buffer" : 0,
            "byteLength" : 8124,
            "byteOffset" : 8124,
            "target" : 34962
        },
        {
            "buffer" : 0,
            "byteLength" : 5416,
            "byteOffset" : 16248,
            "target" : 34962
        },
        {
            "buffer" : 0,
            "byteLength" : 2112,
            "byteOffset" : 21664,
            "target" : 34963
        }
    ],
    "buffers" : [
        {
            "byteLength" : 23776,
            "uri" : "7.bin"
        }
    ]
}
