{
    "asset" : {
        "generator" : "Khronos glTF Blender I/O v3.3.27",
        "version" : "2.0"
    },
    "scene" : 0,
    "scenes" : [
        {
            "name" : "Scene",
            "nodes" : [
                0
            ]
        }
    ],
    "nodes" : [
        {
            "mesh" : 0,
            "name" : "Text.006",
            "translation" : [
                2.2280638217926025,
                0,
                -0.2401321530342102
            ]
        }
    ],
    "meshes" : [
        {
            "name" : "Text.006",
            "primitives" : [
                {
                    "attributes" : {
                        "POSITION" : 0,
                        "NORMAL" : 1,
                        "TEXCOORD_0" : 2
                    },
                    "indices" : 3
                }
            ]
        }
    ],
    "accessors" : [
        {
            "bufferView" : 0,
            "componentType" : 5126,
            "count" : 2436,
            "max" : [
                0.17964217066764832,
                0.11285419762134552,
                0.2492389976978302
            ],
            "min" : [
                -0.1751740276813507,
                0,
                -0.275454580783844
            ],
            "type" : "VEC3"
        },
        {
            "bufferView" : 1,
            "componentType" : 5126,
            "count" : 2436,
            "type" : "VEC3"
        },
        {
            "bufferView" : 2,
            "componentType" : 5126,
            "count" : 2436,
            "type" : "VEC2"
        },
        {
            "bufferView" : 3,
            "componentType" : 5123,
            "count" : 3756,
            "type" : "SCALAR"
        }
    ],
    "bufferViews" : [
        {
            "buffer" : 0,
            "byteLength" : 29232,
            "byteOffset" : 0,
            "target" : 34962
        },
        {
            "buffer" : 0,
            "byteLength" : 29232,
            "byteOffset" : 29232,
            "target" : 34962
        },
        {
            "buffer" : 0,
            "byteLength" : 19488,
            "byteOffset" : 58464,
            "target" : 34962
        },
        {
            "buffer" : 0,
            "byteLength" : 7512,
            "byteOffset" : 77952,
            "target" : 34963
        }
    ],
    "buffers" : [
        {
            "byteLength" : 85464,
            "uri" : "6.bin"
        }
    ]
}
