{
    "asset" : {
        "generator" : "Khronos glTF Blender I/O v3.3.27",
        "version" : "2.0"
    },
    "scene" : 0,
    "scenes" : [
        {
            "name" : "Scene",
            "nodes" : [
                0
            ]
        }
    ],
    "nodes" : [
        {
            "mesh" : 0,
            "name" : "Text",
            "translation" : [
                3.0264201164245605,
                0,
                -0.27202844619750977
            ]
        }
    ],
    "meshes" : [
        {
            "name" : "Text",
            "primitives" : [
                {
                    "attributes" : {
                        "POSITION" : 0,
                        "NORMAL" : 1,
                        "TEXCOORD_0" : 2
                    },
                    "indices" : 3
                }
            ]
        }
    ],
    "accessors" : [
        {
            "bufferView" : 0,
            "componentType" : 5126,
            "count" : 3015,
            "max" : [
                0.17287933826446533,
                0.11285419762134552,
                0.28113529086112976
            ],
            "min" : [
                -0.18649017810821533,
                0,
                -0.24355827271938324
            ],
            "type" : "VEC3"
        },
        {
            "bufferView" : 1,
            "componentType" : 5126,
            "count" : 3015,
            "type" : "VEC3"
        },
        {
            "bufferView" : 2,
            "componentType" : 5126,
            "count" : 3015,
            "type" : "VEC2"
        },
        {
            "bufferView" : 3,
            "componentType" : 5123,
            "count" : 4764,
            "type" : "SCALAR"
        }
    ],
    "bufferViews" : [
        {
            "buffer" : 0,
            "byteLength" : 36180,
            "byteOffset" : 0,
            "target" : 34962
        },
        {
            "buffer" : 0,
            "byteLength" : 36180,
            "byteOffset" : 36180,
            "target" : 34962
        },
        {
            "buffer" : 0,
            "byteLength" : 24120,
            "byteOffset" : 72360,
            "target" : 34962
        },
        {
            "buffer" : 0,
            "byteLength" : 9528,
            "byteOffset" : 96480,
            "target" : 34963
        }
    ],
    "buffers" : [
        {
            "byteLength" : 106008,
            "uri" : "8.bin"
        }
    ]
}
